<svg id="logosandtypes_com" xmlns="http://www.w3.org/2000/svg" viewBox="0 0 150 150"><path d="M0 0h150v150H0V0z" fill="none"/><linearGradient id="a" gradientUnits="userSpaceOnUse" x1="161.4265" y1="614.9211" x2="124.0983" y2="733.4788" gradientTransform="translate(-69.09 -596.61)"><stop offset="0" stop-color="#ffe802"/><stop offset="1" stop-color="#fcb912"/></linearGradient><path d="M120.2 96.6c-1-9.6-6.3-16.7-13.4-22.7-4.7-4-10.2-6.7-15.7-9.5-10.3-5.1-20.8-10-30.7-16-4.9-2.9-9.4-6.2-12.3-11.3-3.3-5.8-2.9-12.5 1.2-17.6 2.5-3 5.8-4.8 9.3-6.2.5-.2 1.3-.2 1.5-1-.4-.5-1-.8-1.6-.5-8.8 2.1-16.5 5.9-22.3 12.9-7.6 9.4-8.8 20.3-6 31.5 2.2 8.7 7.9 15 15.1 20 8.8 6.1 18.6 10.2 28.2 14.8 7.5 3.6 15.2 7 22.1 11.8 3.9 2.7 7.4 5.7 9.8 9.9 3.6 6.3 2.8 13.8-1.8 18.4-.4.4-.9.8-.9 1.6.7-.1 1.4-.4 1.9-.8 12.9-8.6 17.1-20.8 15.6-35.3zm-26.7 27.6c-6.6 1.8-13.4 2.5-20.3 2.2-7.2-.4-14.2-2.2-20.7-5.2-3.6-1.6-7-3.8-10.5-5.8-.5-.3-.9-.6-1.7-.3-.1 2.3 1.4 4.2 1.9 6.4-.8.5-1.6.4-2.4.5-2.6 0-5.2-.1-7.8.5-1.7.4-2 1.5-.8 2.8 1.7 1.7 3.6 3.1 5.8 4.1 11.1 5.6 23.7 7.7 36 6.3 7.8-.9 14.8-3.5 20.6-9 .8-.7 1.7-1.4 2-2.6-.7-.4-1.4-.1-2.1.1zM65 29c-.3.3-.6.6-.4 1.1.5.4 1 .2 1.4-.1.7-.3 1.4-.7 2.2-1.1 12.2-5.7 24.6-6.6 37.3-1.3 2.3 1 4.7 1.3 7 .1 2.1-1 3-3.6 2-5.7-.1-.3-.3-.5-.5-.7-1.2-1.8-3-2.8-4.9-3.6-6.4-2.6-13-2.9-19.8-2-9.7 1.5-18 5.6-24.3 13.3zm.8 88.1c.8.1 1.6.1 2.2-.6 0-.5-.3-.9-.7-1.1-3.6-2.6-7.3-5-11.1-7.2-1.8-1-3.7-2.1-5.7-2.5-.5-.1-1.1-.3-1.5.2s-.2 1 .1 1.6c.5 1.2 1.2 2.3 2.1 3.2 3.9 4.2 9 5.9 14.6 6.4zm-7.9-93.3c.4.2.9.2 1.2-.1 5.1-3.4 10.2-6.8 15.2-10.2.7-.5 1.5-1 1.7-2-.2-.3-.6-.5-.9-.5-6.7-.6-14.5 4.1-17 10.3-.4.8-.7 1.6-.2 2.5z" fill="url(#a)"/></svg>